<svg xmlns="http://www.w3.org/2000/svg" xmlns:xlink="http://www.w3.org/1999/xlink" width="500" zoomAndPan="magnify" viewBox="0 0 375 374.999991" height="500" preserveAspectRatio="xMidYMid meet" version="1.0"><defs><g/><clipPath id="d2304ec94e"><path d="M 19.703125 137.460938 L 119.585938 137.460938 L 119.585938 237.34375 L 19.703125 237.34375 Z M 19.703125 137.460938 " clip-rule="nonzero"/></clipPath><clipPath id="1dc8d0da30"><path d="M 69.644531 137.460938 C 42.0625 137.460938 19.703125 159.820312 19.703125 187.402344 C 19.703125 214.988281 42.0625 237.34375 69.644531 237.34375 C 97.226562 237.34375 119.585938 214.988281 119.585938 187.402344 C 119.585938 159.820312 97.226562 137.460938 69.644531 137.460938 Z M 69.644531 137.460938 " clip-rule="nonzero"/></clipPath><clipPath id="383a02d8fb"><path d="M 44.558594 162.316406 L 94.734375 162.316406 L 94.734375 212.492188 L 44.558594 212.492188 Z M 44.558594 162.316406 " clip-rule="nonzero"/></clipPath><clipPath id="3068501250"><path d="M 52.25 162.316406 L 87.039062 162.316406 C 89.078125 162.316406 91.035156 163.125 92.480469 164.570312 C 93.921875 166.011719 94.734375 167.96875 94.734375 170.011719 L 94.734375 204.796875 C 94.734375 206.839844 93.921875 208.792969 92.480469 210.238281 C 91.035156 211.679688 89.078125 212.492188 87.039062 212.492188 L 52.25 212.492188 C 50.210938 212.492188 48.253906 211.679688 46.808594 210.238281 C 45.367188 208.792969 44.558594 206.839844 44.558594 204.796875 L 44.558594 170.011719 C 44.558594 167.96875 45.367188 166.011719 46.808594 164.570312 C 48.253906 163.125 50.210938 162.316406 52.25 162.316406 Z M 52.25 162.316406 " clip-rule="nonzero"/></clipPath><clipPath id="b4ab814eef"><path d="M 38.9375 157.851562 L 100.582031 157.851562 L 100.582031 216.953125 L 38.9375 216.953125 Z M 38.9375 157.851562 " clip-rule="nonzero"/></clipPath><clipPath id="a399df2b81"><path d="M 46.632812 157.851562 L 92.65625 157.851562 C 94.699219 157.851562 96.65625 158.664062 98.097656 160.105469 C 99.542969 161.546875 100.351562 163.503906 100.351562 165.542969 L 100.351562 209.261719 C 100.351562 211.304688 99.542969 213.261719 98.097656 214.703125 C 96.65625 216.144531 94.699219 216.953125 92.65625 216.953125 L 46.632812 216.953125 C 44.59375 216.953125 42.632812 216.144531 41.191406 214.703125 C 39.75 213.261719 38.9375 211.304688 38.9375 209.261719 L 38.9375 165.542969 C 38.9375 163.503906 39.75 161.546875 41.191406 160.105469 C 42.632812 158.664062 44.59375 157.851562 46.632812 157.851562 Z M 46.632812 157.851562 " clip-rule="nonzero"/></clipPath><clipPath id="79b58984a8"><path d="M 44.558594 205.832031 L 67.523438 205.832031 L 67.523438 209.636719 L 44.558594 209.636719 Z M 44.558594 205.832031 " clip-rule="nonzero"/></clipPath><clipPath id="c51d01f146"><path d="M 46.457031 205.832031 L 65.617188 205.832031 C 66.121094 205.832031 66.605469 206.035156 66.960938 206.390625 C 67.320312 206.746094 67.519531 207.230469 67.519531 207.734375 C 67.519531 208.238281 67.320312 208.722656 66.960938 209.078125 C 66.605469 209.4375 66.121094 209.636719 65.617188 209.636719 L 46.457031 209.636719 C 45.953125 209.636719 45.46875 209.4375 45.117188 209.078125 C 44.757812 208.722656 44.558594 208.238281 44.558594 207.734375 C 44.558594 207.230469 44.757812 206.746094 45.117188 206.390625 C 45.46875 206.035156 45.953125 205.832031 46.457031 205.832031 Z M 46.457031 205.832031 " clip-rule="nonzero"/></clipPath><clipPath id="8a3714597e"><path d="M 44.558594 193.21875 L 79.289062 193.21875 L 79.289062 197.023438 L 44.558594 197.023438 Z M 44.558594 193.21875 " clip-rule="nonzero"/></clipPath><clipPath id="6d61255cc5"><path d="M 46.457031 193.21875 L 77.375 193.21875 C 77.878906 193.21875 78.363281 193.417969 78.71875 193.777344 C 79.074219 194.132812 79.277344 194.617188 79.277344 195.121094 C 79.277344 195.625 79.074219 196.109375 78.71875 196.46875 C 78.363281 196.824219 77.878906 197.023438 77.375 197.023438 L 46.457031 197.023438 C 45.953125 197.023438 45.46875 196.824219 45.117188 196.46875 C 44.757812 196.109375 44.558594 195.625 44.558594 195.121094 C 44.558594 194.617188 44.757812 194.132812 45.117188 193.777344 C 45.46875 193.417969 45.953125 193.21875 46.457031 193.21875 Z M 46.457031 193.21875 " clip-rule="nonzero"/></clipPath><clipPath id="5bc471c4bb"><path d="M 44.558594 180.722656 L 92.125 180.722656 L 92.125 184.523438 L 44.558594 184.523438 Z M 44.558594 180.722656 " clip-rule="nonzero"/></clipPath><clipPath id="e9f3f1de50"><path d="M 46.457031 180.722656 L 90.21875 180.722656 C 90.722656 180.722656 91.207031 180.921875 91.5625 181.277344 C 91.917969 181.632812 92.121094 182.117188 92.121094 182.621094 C 92.121094 183.125 91.917969 183.609375 91.5625 183.964844 C 91.207031 184.320312 90.722656 184.523438 90.21875 184.523438 L 46.457031 184.523438 C 45.953125 184.523438 45.46875 184.320312 45.117188 183.964844 C 44.757812 183.609375 44.558594 183.125 44.558594 182.621094 C 44.558594 182.117188 44.757812 181.632812 45.117188 181.277344 C 45.46875 180.921875 45.953125 180.722656 46.457031 180.722656 Z M 46.457031 180.722656 " clip-rule="nonzero"/></clipPath><clipPath id="5e883e532c"><path d="M 52.710938 146.609375 L 86.582031 146.609375 L 86.582031 170.433594 L 52.710938 170.433594 Z M 52.710938 146.609375 " clip-rule="nonzero"/></clipPath><clipPath id="c9e912961a"><path d="M 69.644531 146.609375 L 52.710938 163.542969 L 61.179688 163.542969 L 61.179688 170.433594 L 78.113281 170.433594 L 78.113281 163.542969 L 86.578125 163.542969 Z M 69.644531 146.609375 " clip-rule="nonzero"/></clipPath></defs><g clip-path="url(#d2304ec94e)"><g clip-path="url(#1dc8d0da30)"><path fill="#ff914d" d="M 19.703125 137.460938 L 119.585938 137.460938 L 119.585938 237.34375 L 19.703125 237.34375 Z M 19.703125 137.460938 " fill-opacity="1" fill-rule="nonzero"/></g></g><g clip-path="url(#383a02d8fb)"><g clip-path="url(#3068501250)"><path fill="#ff914d" d="M 44.558594 162.316406 L 94.734375 162.316406 L 94.734375 212.492188 L 44.558594 212.492188 Z M 44.558594 162.316406 " fill-opacity="1" fill-rule="nonzero"/></g></g><g clip-path="url(#b4ab814eef)"><g clip-path="url(#a399df2b81)"><path fill="#ffffff" d="M 38.9375 157.851562 L 100.351562 157.851562 L 100.351562 216.957031 L 38.9375 216.957031 Z M 38.9375 157.851562 " fill-opacity="1" fill-rule="nonzero"/></g></g><g clip-path="url(#79b58984a8)"><g clip-path="url(#c51d01f146)"><path fill="#545454" d="M 44.558594 205.832031 L 67.523438 205.832031 L 67.523438 209.636719 L 44.558594 209.636719 Z M 44.558594 205.832031 " fill-opacity="1" fill-rule="nonzero"/></g></g><g clip-path="url(#8a3714597e)"><g clip-path="url(#6d61255cc5)"><path fill="#545454" d="M 44.558594 193.21875 L 79.273438 193.21875 L 79.273438 197.023438 L 44.558594 197.023438 Z M 44.558594 193.21875 " fill-opacity="1" fill-rule="nonzero"/></g></g><g clip-path="url(#5bc471c4bb)"><g clip-path="url(#e9f3f1de50)"><path fill="#545454" d="M 44.558594 180.722656 L 92.125 180.722656 L 92.125 184.523438 L 44.558594 184.523438 Z M 44.558594 180.722656 " fill-opacity="1" fill-rule="nonzero"/></g></g><g clip-path="url(#5e883e532c)"><g clip-path="url(#c9e912961a)"><path fill="#00bf63" d="M 52.710938 146.609375 L 86.582031 146.609375 L 86.582031 170.433594 L 52.710938 170.433594 Z M 52.710938 146.609375 " fill-opacity="1" fill-rule="nonzero"/></g></g><g fill="#545454" fill-opacity="1"><g transform="translate(135.9811, 208.03678)"><g><path d="M 29.71875 0 L 29.71875 -8.609375 L 10.921875 -8.609375 L 10.921875 -37.75 L 1.46875 -37.75 L 1.46875 0 Z M 29.71875 0 "/></g></g></g><g fill="#545454" fill-opacity="1"><g transform="translate(166.818861, 208.03678)"><g><path d="M 29.71875 0 L 29.71875 -8.609375 L 10.921875 -8.609375 L 10.921875 -14.828125 L 29.71875 -14.828125 L 29.71875 -23.140625 L 10.921875 -23.140625 L 10.921875 -29.09375 L 29.71875 -29.09375 L 29.71875 -37.75 L 1.46875 -37.75 L 1.46875 0 Z M 29.71875 0 "/></g></g></g><g fill="#545454" fill-opacity="1"><g transform="translate(197.996116, 208.03678)"><g><path d="M 31.0625 -29.09375 L 31.0625 -37.75 L 19.75 -37.75 L 19.75 -8.609375 L 12.171875 -8.609375 L 12.171875 -37.75 L 0.84375 -37.75 L 0.84375 -29.09375 L 2.71875 -29.09375 L 2.71875 0 L 29.203125 0 L 29.203125 -29.09375 Z M 31.0625 -29.09375 "/></g></g></g><g fill="#545454" fill-opacity="1"><g transform="translate(229.908945, 208.03678)"><g><path d="M 29.71875 0 L 29.71875 -8.609375 L 10.921875 -8.609375 L 10.921875 -14.828125 L 29.71875 -14.828125 L 29.71875 -23.140625 L 10.921875 -23.140625 L 10.921875 -29.09375 L 29.71875 -29.09375 L 29.71875 -37.75 L 1.46875 -37.75 L 1.46875 0 Z M 29.71875 0 "/></g></g></g><g fill="#545454" fill-opacity="1"><g transform="translate(261.086199, 208.03678)"><g><path d="M 29.71875 0 L 29.71875 -8.609375 L 10.921875 -8.609375 L 10.921875 -37.75 L 1.46875 -37.75 L 1.46875 0 Z M 29.71875 0 "/></g></g></g><g fill="#545454" fill-opacity="1"><g transform="translate(291.92396, 208.03678)"><g><path d="M 29.828125 0 L 29.828125 -37.75 L 20.375 -37.75 L 20.375 -8.609375 L 10.921875 -8.609375 L 10.921875 -37.75 L 1.46875 -37.75 L 1.46875 0 Z M 29.828125 0 "/></g></g></g><g fill="#545454" fill-opacity="1"><g transform="translate(323.214379, 208.03678)"><g><path d="M 29.828125 -10.53125 L 29.828125 -37.75 L 1.46875 -37.75 L 1.46875 0 L 10.921875 0 L 10.921875 -10.53125 Z M 20.375 -19.125 L 10.921875 -19.125 L 10.921875 -29.09375 L 20.375 -29.09375 Z M 20.375 -19.125 "/></g></g></g></svg>